<?xml version="1.0" encoding="UTF-8" standalone="no"?>
<svg
   xmlns:dc="http://purl.org/dc/elements/1.1/"
   xmlns:cc="http://creativecommons.org/ns#"
   xmlns:rdf="http://www.w3.org/1999/02/22-rdf-syntax-ns#"
   xmlns:svg="http://www.w3.org/2000/svg"
   xmlns="http://www.w3.org/2000/svg"
   xmlns:sodipodi="http://sodipodi.sourceforge.net/DTD/sodipodi-0.dtd"
   xmlns:inkscape="http://www.inkscape.org/namespaces/inkscape"
   id="Layer_1"
   style="enable-background:new 0 0 30 30;"
   version="1.1"
   viewBox="0 0 30 30"
   xml:space="preserve"
   sodipodi:docname="practice.svg"
   inkscape:version="0.92.2 5c3e80d, 2017-08-06"><metadata
     id="metadata9"><rdf:RDF><cc:Work
         rdf:about=""><dc:format>image/svg+xml</dc:format><dc:type
           rdf:resource="http://purl.org/dc/dcmitype/StillImage" /><dc:title /></cc:Work></rdf:RDF></metadata><defs
     id="defs7" /><sodipodi:namedview
     pagecolor="#ffffff"
     bordercolor="#666666"
     borderopacity="1"
     objecttolerance="10"
     gridtolerance="10"
     guidetolerance="10"
     inkscape:pageopacity="0"
     inkscape:pageshadow="2"
     inkscape:window-width="1280"
     inkscape:window-height="751"
     id="namedview5"
     showgrid="false"
     inkscape:zoom="15.733333"
     inkscape:cx="10.025153"
     inkscape:cy="15.854093"
     inkscape:window-x="1680"
     inkscape:window-y="542"
     inkscape:window-maximized="0"
     inkscape:current-layer="layer2"
     inkscape:snap-bbox="true" /><g
     inkscape:groupmode="layer"
     id="layer1"
     inkscape:label="Pancarte"
     style="display:inline" /><g
     inkscape:groupmode="layer"
     id="layer2"
     inkscape:label="Old"
     style="display:inline"><path
       style="fill:#d9d9d9;fill-rule:evenodd;stroke:#000000;stroke-width:0.13333333;stroke-linecap:butt;stroke-linejoin:miter;stroke-miterlimit:4;stroke-dasharray:none;stroke-opacity:1;fill-opacity:1"
       d="M 3.5410156 4.1367188 C 2.6688167 4.1367187 1.8515625 4.8285552 1.8515625 5.7148438 L 1.8515625 22.935547 L 28.621094 22.935547 L 28.621094 5.7421875 C 28.621094 4.9113933 28.120048 4.1367188 27.205078 4.1367188 L 3.5410156 4.1367188 z M 3.46875 5.703125 L 27.083984 5.703125 L 27.083984 21.054688 L 3.46875 21.054688 L 3.46875 5.703125 z "
       id="path876" /><path
       style="fill:#2bb771;fill-opacity:1;fill-rule:evenodd;stroke:none;stroke-width:0.13333333;stroke-linecap:butt;stroke-linejoin:miter;stroke-miterlimit:4;stroke-dasharray:none;stroke-opacity:1"
       d="m 8.1027157,6.8672013 c -1.0878907,0 -2.2037658,0.504574 -2.2037658,2.2041443 l 0.014456,3.0598514 c 0,0.622418 -0.3689365,0.983817 -1.3005834,0.983817 v 0.211874 0.451669 0.213516 c 0.9316469,0 1.3005834,0.35976 1.3005834,0.982175 L 5.8989499,18.0341 c 0,1.69957 1.1158751,2.205786 2.2037658,2.205786 v -1.175981 c -0.7452609,0 -0.9787037,-0.447438 -0.9844693,-1.082363 v -3.007294 c 0,-0.704704 -0.2010486,-1.169314 -0.5184271,-1.420704 0.3179371,-0.251211 0.5184271,-0.716931 0.5184271,-1.422347 V 9.1239034 C 7.1239764,8.4889781 7.3574548,8.0415405 8.1027157,8.0415405 Z"
       id="path836"
       inkscape:connector-curvature="0" /><path
       style="fill:#2bb771;fill-opacity:1;fill-rule:evenodd;stroke:none;stroke-width:0.99999994px;stroke-linecap:butt;stroke-linejoin:miter;stroke-opacity:1"
       d="m 20.058385,7.788405 0.655309,1.912028 1.622409,0.351429 1.125424,-1.2931984 -0.655488,-1.9119666 c 0,0 1.606934,0.129556 2.101663,1.5730518 0.405887,1.1842773 -0.850641,2.7637892 -0.850641,2.7637892 l 2.358741,6.596974 c 0.524766,1.531137 -2.297281,2.424841 -2.799506,0.959476 l -2.286248,-6.670701 c 0,0 -1.59948,-0.294306 -2.092147,-1.731791 -0.492665,-1.4374803 0.820482,-2.5490965 0.820482,-2.5490965 z"
       id="path847"
       inkscape:connector-curvature="0"
       sodipodi:nodetypes="cccccsccccscc" /><path
       sodipodi:nodetypes="ccccccc"
       inkscape:connector-curvature="0"
       id="path878"
       d="m 0.7190916,23.582885 c 0,0.705863 0.8869481,0.815077 1.8329282,0.815077 H 28.21663 c 0.99237,0 1.535787,-0.448006 1.535787,-0.928002 V 22.936141 H 0.7190916 Z"
       style="fill:#d9d9d9;fill-rule:evenodd;stroke:#000000;stroke-width:0.13333333;stroke-linecap:butt;stroke-linejoin:miter;stroke-miterlimit:4;stroke-dasharray:none;stroke-opacity:1;fill-opacity:1" /><path
       style="fill:#2bb771;fill-opacity:1;fill-rule:evenodd;stroke:none;stroke-width:1.00000012px;stroke-linecap:butt;stroke-linejoin:miter;stroke-opacity:1"
       d="m 9.9245094,10.038215 v 1.154177 l 6.6533296,2.368053 -6.6132495,2.348154 v 1.134278 l 8.2365005,-2.925243 0.02004,-1.094479 z"
       id="path900"
       inkscape:connector-curvature="0" /></g></svg>